<svg
    xmlns="http://www.w3.org/2000/svg"
    xml:space="preserve"
    x="0px"
    y="0px"
    viewBox="0 0 48 48">
    <style type="text/css">
        .es-favico-st0 {
            fill: #CA7029;
        }
        @media (prefers-color-scheme: dark) {
            .es-favico-st0 { fill: #CA7029 }
        }
    </style>
    <path
        d="M36.4,17.2c-1.1-1.8-2.6-3.8-4.5-5.9c-3.1-3.5-6.2-6.2-6.4-6.3c-0.4-0.4-1-0.6-1.6-0.6c-0.6,0-1.1,0.2-1.6,0.6 c-0.1,0.1-3.2,2.7-6.4,6.3c-1.9,2.1-3.4,4.1-4.5,5.9C10.1,19.8,9.3,22,9.3,24c0,7.7,5.9,14,13.4,14.6v3.7c0,0.7,0.5,1.2,1.2,1.2 s1.2-0.5,1.2-1.2v-3.7C32.7,38,38.7,31.7,38.7,24C38.7,22,37.9,19.8,36.4,17.2L36.4,17.2z M24.6,36.2h-1.2 c-6.5-0.3-11.6-5.7-11.6-12.2S24,6.9,24,6.9S36.2,17.3,36.2,24S31.1,35.9,24.6,36.2L24.6,36.2z"
        class="st0"/>
    <path
        d="M28.9,21.5c-0.2-0.3-0.7-0.5-1.1-0.5l-2.1,0.4l0.5-8.5c0-0.5-0.3-0.9-0.8-1c-0.2,0-0.3,0-0.5,0 c-0.3,0.1-0.6,0.2-0.7,0.5h0L19,24.7c-0.2,0.4-0.2,0.8,0,1.2c0.2,0.3,0.7,0.5,1.1,0.5l2-0.3l-1.4,6.8v0v0c0,0.5,0.3,0.9,0.8,1 c0.1,0,0.2,0,0.3,0c0.1,0,0.1,0,0.2,0c0.3,0,0.6-0.2,0.7-0.5l6.1-10.7C29.2,22.3,29.2,21.9,28.9,21.5 M27.6,22.5l-5.3,9.2l1.2-7.2 L20.3,25l4.6-10.7L24.4,23C24.4,23,27.6,22.5,27.6,22.5z"
        class="st0"/>
</svg>
