<svg version="1.1" xmlns="http://www.w3.org/2000/svg" x="0" y="0" xml:space="preserve" viewBox="-0.12 0.6 235.12 51.92">
  <style>
    .st0{fill:#616161}
  </style>
  <path class="st0" d="M3.4 28.1c0 5.5 1.5 6.6 4 6.6 2.2 0 3.3-1.8 3.4-3.7h3.5c0 4.4-2.7 6.4-6.9 6.4s-7.5-1.3-7.5-9.9C-.1 21.7.6 17 7.4 17c5.6 0 7 3.1 7 9.6v1.7h-11m7.7-2.6c0-5.7-1.6-6.4-3.9-6.4-2 0-3.7 1-3.7 6.4h7.6zM30.5 37V23.3c0-2.1-.7-3.8-3.5-3.8-3.5 0-4 3.1-4 5.8V37h-3.2V21.4c0-1.4-.1-2.7-.2-4.1H23v2.5h.2c1.2-2.2 2.7-2.9 5.3-2.9 4.2 0 5.3 2.5 5.3 6.4V37h-3.3m12-8.9c0 5.5 1.5 6.6 4 6.6 2.2 0 3.3-1.8 3.4-3.7h3.5c0 4.4-2.7 6.4-6.9 6.4S39 36.1 39 27.5c0-5.8.7-10.5 7.5-10.5 5.6 0 7 3.1 7 9.6v1.7h-11m7.7-2.6c0-5.7-1.6-6.4-3.9-6.4-2 0-3.7 1-3.7 6.4h7.6zm12-5.5c1.4-3 3-3.4 6.2-3.4v3.3c-.6-.1-1.1-.2-1.7-.2-3.6 0-4.5 2.7-4.5 5.3V37H59V17.3h3.2v2.9m20.1-2.9h3.2V39c0 4.4-2.9 5.5-7.3 5.5-3.3 0-6.2-1.6-6-5.3h3.6c0 1.8 1.2 2.8 3 2.8 2.2 0 3.4-1.4 3.4-3.4v-4.1h-.1c-.8 1.6-2.6 2.5-4.3 2.5-5.3 0-6.4-4.6-6.4-10.5 0-9.1 4.6-9.6 6.2-9.6 2.1 0 3.7.9 4.6 2.8h.1v-2.4m-3.8 2.2c-3.6 0-3.7 4.4-3.7 7 0 6.3 1.4 7.8 3.8 7.8 3.9 0 3.7-4.6 3.7-7.3 0-2.9.2-7.5-3.8-7.5zm18.8 13.8h.1l4.7-16h3.5l-9 27.1h-3.3l2.2-7.4-6.6-19.7h3.7l4.7 16"/>
  <path d="M114.5 37.4c-4.3 0-6.9-1.9-6.8-6.4h3.6c0 1.1 0 3.8 3.3 3.8 1.9 0 3.4-1 3.4-3 0-3.5-9.8-3.6-9.8-9.5 0-2.1 1.2-5.4 6.8-5.4 3.5 0 6.5 1.7 6.2 5.6h-3.6c0-2.1-1.1-3.2-3.1-3.2-1.7 0-3 .9-3 2.7 0 3.5 9.8 3.4 9.8 9.4.1 4.3-2.9 6-6.8 6m21.7-3.3c-1 2.3-2.6 3.2-5 3.2-4.2 0-5.4-2.7-5.4-6.5 0-6 5.9-6.2 10.3-6.1.1-2.6.1-5.5-3.3-5.5-2.1 0-3.3 1.4-3.1 3.5h-3.5c.2-4.4 2.5-5.9 6.7-5.9 5.1 0 6.4 2.6 6.4 5.9v9.5c0 1.6.2 3.2.4 4.7h-3.5v-2.8m-7.3-3c0 1.9.9 3.6 3.1 3.6 1.9 0 4.4-1.2 4.1-7.6-3.1.1-7.2-.2-7.2 4zm27-13.8h3.2V39c0 4.4-2.9 5.5-7.3 5.5-3.3 0-6.2-1.6-6-5.3h3.6c0 1.8 1.3 2.8 3 2.8 2.2 0 3.4-1.4 3.4-3.4v-4.1h-.1c-.8 1.6-2.6 2.5-4.3 2.5-5.3 0-6.4-4.6-6.4-10.5 0-9.1 4.6-9.6 6.2-9.6 2.1 0 3.7.9 4.6 2.8h.1v-2.4m-3.7 2.2c-3.6 0-3.7 4.4-3.7 7 0 6.3 1.4 7.8 3.8 7.8 3.9 0 3.7-4.6 3.7-7.3 0-2.9.2-7.5-3.8-7.5zm16 8.6c0 5.5 1.5 6.6 4 6.6 2.2 0 3.3-1.8 3.4-3.7h3.5c0 4.4-2.7 6.4-6.9 6.4s-7.5-1.3-7.5-9.9c0-5.8.7-10.5 7.5-10.5 5.6 0 7 3.1 7 9.6v1.7h-11m7.6-2.6c0-5.7-1.6-6.4-3.9-6.4-2 0-3.7 1-3.7 6.4h7.6z" style="fill:#ca6f20"/>
  <path class="st0" d="M226.3 17.6c-1.4-2.4-3.4-5.1-5.9-7.9-4.2-4.7-8.2-8.2-8.4-8.3-.6-.5-1.4-.8-2.1-.8-.7 0-1.5.3-2.1.8-.2.1-4.3 3.6-8.4 8.3-2.5 2.8-4.5 5.4-5.9 7.9-2 3.4-3 6.3-3 9 0 10.2 7.9 18.5 17.8 19.4v4.9c0 .9.7 1.6 1.6 1.6.9 0 1.6-.7 1.6-1.6V46c9.9-.8 17.8-9.2 17.8-19.4 0-2.7-1-5.7-3-9zm-15.6 25.1h-1.6c-8.6-.4-15.4-7.5-15.4-16.2 0-8.9 16.2-22.7 16.2-22.7s16.2 13.7 16.2 22.7c0 8.7-6.9 15.8-15.4 16.2z"/>
  <path class="st0" d="M216.4 23.3c-.3-.5-.9-.7-1.4-.6l-2.8.5.6-11.2c0-.6-.4-1.2-1-1.4-.2-.1-.4-.1-.6 0-.4.1-.8.3-1 .7l-7 16.3c-.3.5-.3 1.1 0 1.5.3.5.9.7 1.4.6l2.7-.5-1.8 9.1c0 .6.4 1.2 1 1.4.1 0 .3.1.4.1h.2c.4-.1.8-.3 1-.7l8.1-14.2c.5-.5.5-1.1.2-1.6m-1.8 1.2-7 12.2 1.6-9.6-4.3.7 6.1-14.2-.6 11.6 4.2-.7zm18.3 8.7c-.6 0-1.1.2-1.5.6-.4.4-.6.9-.6 1.5 0 1.2.9 2.1 2.1 2.1 1.2 0 2.1-1 2.1-2.1 0-1.2-.9-2.1-2.1-2.1zm1.7 2.1c0 1-.8 1.7-1.7 1.7-.9 0-1.7-.8-1.7-1.7 0-1 .8-1.7 1.7-1.7.9 0 1.7.8 1.7 1.7z"/>
  <path class="st0" d="M233.6 34.9c0-.2-.1-.3-.2-.4-.1-.1-.3-.1-.6-.1h-.6v2h.3v-.8h.3l.5.8h.4l-.6-.9c.3-.2.5-.3.5-.6zm-.8.4h-.2v-.7h.2c.2 0 .3 0 .3.1.1.1.1.1.1.2s0 .2-.1.3c0 0-.1.1-.3.1z"/>
</svg>
