<?xml version="1.0" standalone="no"?>
<!DOCTYPE svg PUBLIC "-//W3C//DTD SVG 20010904//EN"
 "http://www.w3.org/TR/2001/REC-SVG-20010904/DTD/svg10.dtd">
<svg version="1.0" xmlns="http://www.w3.org/2000/svg"
 width="700.000000pt" height="700.000000pt" viewBox="0 0 700.000000 700.000000"
 preserveAspectRatio="xMidYMid meet">
<metadata>
Created by potrace 1.14, written by Peter Selinger 2001-2017
</metadata>
<g transform="translate(0.000000,700.000000) scale(0.100000,-0.100000)"
fill="#000000" stroke="none">
<path d="M3379 6345 c-67 -24 -101 -47 -188 -123 -675 -595 -1329 -1344 -1555
-1782 -110 -214 -195 -434 -240 -619 -51 -209 -56 -379 -20 -631 127 -886 806
-1608 1679 -1785 66 -13 150 -27 188 -31 l67 -7 0 -296 c0 -282 1 -298 21
-330 28 -46 56 -67 106 -81 80 -23 162 9 201 78 21 39 22 49 22 334 l0 294
103 13 c708 87 1341 534 1658 1171 151 303 223 605 223 930 -1 130 -5 186 -22
266 -34 160 -95 324 -197 529 -221 448 -595 926 -1195 1526 -367 368 -540 516
-633 544 -61 18 -169 18 -218 0z m275 -494 c184 -168 611 -601 755 -766 328
-375 536 -669 689 -975 130 -259 174 -420 173 -640 -4 -753 -480 -1413 -1190
-1650 -310 -104 -626 -124 -944 -59 -720 146 -1281 740 -1392 1477 -18 119
-21 335 -5 422 69 386 426 952 991 1570 235 258 741 750 770 750 6 0 75 -58
153 -129z"/>
<path d="M3595 5256 c-16 -7 -38 -22 -47 -33 -10 -11 -193 -435 -408 -942
-344 -815 -390 -929 -390 -974 0 -67 25 -108 82 -136 55 -26 97 -26 258 -2 68
11 125 19 126 18 1 -1 -43 -216 -97 -477 -54 -261 -98 -496 -99 -522 0 -80 68
-138 162 -138 92 0 68 -36 561 830 250 437 466 813 481 835 45 65 25 139 -53
192 -54 36 -101 37 -269 5 l-152 -29 5 61 c11 122 65 1087 65 1160 0 66 -3 78
-26 106 -15 17 -39 37 -55 45 -35 18 -104 19 -144 1z m-8 -1049 c-18 -307 -30
-560 -27 -562 3 -1 103 13 223 32 120 19 221 32 223 30 3 -3 -162 -296 -367
-651 -205 -355 -373 -645 -375 -644 -1 2 36 230 82 507 47 277 83 505 81 508
-2 2 -104 -12 -227 -32 -123 -19 -225 -34 -227 -32 -1 2 142 341 320 754 309
721 322 748 324 699 2 -28 -12 -302 -30 -609z"/>
</g>
</svg>
